<svg width="61" height="61" viewBox="0 0 61 61" fill="none" xmlns="http://www.w3.org/2000/svg">
  <circle cx="30.5" cy="30.5" r="30.5" fill="#C13100"/>
  <svg x="15" y="15" width="29" height="30" viewBox="0 0 29 30" fill="none" xmlns="http://www.w3.org/2000/svg">
    <path d="M2 13C0.89543 13 -9.65645e-08 13.8954 0 15C9.65645e-08 16.1046 0.895431 17 2 17L2 13ZM28.4142 16.4142C29.1953 15.6332 29.1953 14.3668 28.4142 13.5858L15.6863 0.857863C14.9052 0.0768145 13.6389 0.0768146 12.8579 0.857863C12.0768 1.63891 12.0768 2.90524 12.8579 3.68629L24.1716 15L12.8579 26.3137C12.0768 27.0948 12.0768 28.3611 12.8579 29.1421C13.6389 29.9232 14.9052 29.9232 15.6863 29.1421L28.4142 16.4142ZM2 17L27 17L27 13L2 13L2 17Z" fill="white"/>
  </svg>
</svg>