<svg width="154" height="22" viewBox="0 0 154 22" fill="none" xmlns="http://www.w3.org/2000/svg">
<rect x="146" width="1.225" height="138" transform="rotate(90 146 0)" fill="#C13100"/>
<path d="M44.3782 10.152V19H42.9642V11.468H38.4282V19H37.0142V10.152H44.3782ZM50.6325 17.936C51.0805 17.936 51.4958 17.8567 51.8785 17.698C52.2611 17.5393 52.5925 17.3153 52.8725 17.026C53.1525 16.7367 53.3718 16.3913 53.5305 15.99C53.6891 15.5793 53.7685 15.1267 53.7685 14.632C53.7685 14.1373 53.6891 13.6847 53.5305 13.274C53.3718 12.8633 53.1525 12.5133 52.8725 12.224C52.5925 11.9347 52.2611 11.7107 51.8785 11.552C51.4958 11.3933 51.0805 11.314 50.6325 11.314C50.1845 11.314 49.7691 11.3933 49.3865 11.552C49.0038 11.7107 48.6725 11.9347 48.3925 12.224C48.1125 12.5133 47.8931 12.8633 47.7345 13.274C47.5758 13.6753 47.4965 14.1233 47.4965 14.618C47.4965 15.1127 47.5758 15.5653 47.7345 15.976C47.8931 16.3867 48.1125 16.7367 48.3925 17.026C48.6725 17.3153 49.0038 17.5393 49.3865 17.698C49.7691 17.8567 50.1845 17.936 50.6325 17.936ZM50.6325 19.252C49.9418 19.252 49.3118 19.14 48.7425 18.916C48.1825 18.692 47.6971 18.3793 47.2865 17.978C46.8851 17.5673 46.5725 17.0773 46.3485 16.508C46.1245 15.9387 46.0078 15.3087 45.9985 14.618C46.0078 13.9273 46.1245 13.302 46.3485 12.742C46.5725 12.1727 46.8851 11.6873 47.2865 11.286C47.6971 10.8753 48.1825 10.558 48.7425 10.334C49.3118 10.11 49.9418 9.998 50.6325 9.998C51.3138 9.998 51.9391 10.11 52.5085 10.334C53.0778 10.558 53.5631 10.8753 53.9645 11.286C54.3751 11.6873 54.6925 12.1727 54.9165 12.742C55.1405 13.3113 55.2571 13.9413 55.2665 14.632C55.2571 15.3227 55.1405 15.9527 54.9165 16.522C54.6925 17.082 54.3751 17.5673 53.9645 17.978C53.5631 18.3793 53.0778 18.692 52.5085 18.916C51.9391 19.14 51.3138 19.252 50.6325 19.252ZM56.1791 17.684H57.0751C57.2711 17.236 57.4484 16.788 57.6071 16.34C57.7658 15.892 57.9011 15.4067 58.0131 14.884C58.1251 14.352 58.2091 13.7733 58.2651 13.148C58.3304 12.5227 58.3631 11.8087 58.3631 11.006V10.152H64.3271V17.684H65.4051V20.652H64.1311V19H57.4531V20.652H56.1791V17.684ZM59.6511 12.7C59.6511 13.68 59.5438 14.5713 59.3291 15.374C59.1144 16.1767 58.8531 16.9467 58.5451 17.684H62.9271V11.426H59.6511V12.7ZM66.9556 10.152H70.3296C70.9549 10.152 71.4869 10.236 71.9256 10.404C72.3643 10.5627 72.7189 10.782 72.9896 11.062C73.2603 11.342 73.4563 11.6687 73.5776 12.042C73.7083 12.4153 73.7736 12.812 73.7736 13.232C73.7736 13.8013 73.6756 14.2867 73.4796 14.688C73.2836 15.08 73.0223 15.402 72.6956 15.654C72.3689 15.8967 71.9956 16.074 71.5756 16.186C71.1556 16.298 70.7216 16.354 70.2736 16.354C70.0403 16.354 69.7509 16.34 69.4056 16.312C69.0696 16.2747 68.7243 16.2187 68.3696 16.144V19H66.9556V10.152ZM68.3696 14.954C68.6403 15.01 68.9249 15.0473 69.2236 15.066C69.5316 15.0847 69.7789 15.094 69.9656 15.094C70.2923 15.094 70.5956 15.0613 70.8756 14.996C71.1649 14.9213 71.4123 14.8093 71.6176 14.66C71.8229 14.5107 71.9816 14.3147 72.0936 14.072C72.2149 13.8293 72.2756 13.5353 72.2756 13.19C72.2756 12.9567 72.2429 12.7373 72.1776 12.532C72.1216 12.3173 72.0143 12.1307 71.8556 11.972C71.6969 11.8133 71.4823 11.692 71.2116 11.608C70.9409 11.5147 70.6003 11.468 70.1896 11.468H68.3696V14.954ZM79.2477 17.936C79.6957 17.936 80.111 17.8567 80.4937 17.698C80.8764 17.5393 81.2077 17.3153 81.4877 17.026C81.7677 16.7367 81.987 16.3913 82.1457 15.99C82.3044 15.5793 82.3837 15.1267 82.3837 14.632C82.3837 14.1373 82.3044 13.6847 82.1457 13.274C81.987 12.8633 81.7677 12.5133 81.4877 12.224C81.2077 11.9347 80.8764 11.7107 80.4937 11.552C80.111 11.3933 79.6957 11.314 79.2477 11.314C78.7997 11.314 78.3844 11.3933 78.0017 11.552C77.619 11.7107 77.2877 11.9347 77.0077 12.224C76.7277 12.5133 76.5084 12.8633 76.3497 13.274C76.191 13.6753 76.1117 14.1233 76.1117 14.618C76.1117 15.1127 76.191 15.5653 76.3497 15.976C76.5084 16.3867 76.7277 16.7367 77.0077 17.026C77.2877 17.3153 77.619 17.5393 78.0017 17.698C78.3844 17.8567 78.7997 17.936 79.2477 17.936ZM79.2477 19.252C78.557 19.252 77.927 19.14 77.3577 18.916C76.7977 18.692 76.3124 18.3793 75.9017 17.978C75.5004 17.5673 75.1877 17.0773 74.9637 16.508C74.7397 15.9387 74.623 15.3087 74.6137 14.618C74.623 13.9273 74.7397 13.302 74.9637 12.742C75.1877 12.1727 75.5004 11.6873 75.9017 11.286C76.3124 10.8753 76.7977 10.558 77.3577 10.334C77.927 10.11 78.557 9.998 79.2477 9.998C79.929 9.998 80.5544 10.11 81.1237 10.334C81.693 10.558 82.1784 10.8753 82.5797 11.286C82.9904 11.6873 83.3077 12.1727 83.5317 12.742C83.7557 13.3113 83.8724 13.9413 83.8817 14.632C83.8724 15.3227 83.7557 15.9527 83.5317 16.522C83.3077 17.082 82.9904 17.5673 82.5797 17.978C82.1784 18.3793 81.693 18.692 81.1237 18.916C80.5544 19.14 79.929 19.252 79.2477 19.252ZM86.9223 13.722C87.0343 13.7127 87.1603 13.7033 87.3003 13.694C87.4497 13.6753 87.599 13.6613 87.7483 13.652C87.907 13.6333 88.061 13.624 88.2103 13.624C88.3597 13.6147 88.495 13.61 88.6163 13.61C89.111 13.61 89.5823 13.6473 90.0303 13.722C90.4877 13.7967 90.889 13.932 91.2343 14.128C91.589 14.324 91.869 14.5947 92.0743 14.94C92.2797 15.276 92.3823 15.7147 92.3823 16.256C92.3823 17.1333 92.107 17.81 91.5563 18.286C91.0057 18.762 90.2357 19 89.2463 19H85.5083V10.152H91.6263V11.426H86.9223V13.722ZM86.9223 17.726H89.1203C89.447 17.726 89.7223 17.6887 89.9463 17.614C90.1703 17.53 90.3523 17.4227 90.4923 17.292C90.6323 17.152 90.7303 16.998 90.7863 16.83C90.8517 16.6527 90.8843 16.4707 90.8843 16.284C90.8843 15.9853 90.8237 15.7427 90.7023 15.556C90.5903 15.3693 90.4363 15.2247 90.2403 15.122C90.0443 15.0193 89.811 14.9493 89.5403 14.912C89.279 14.8747 89.0037 14.856 88.7143 14.856C88.4157 14.856 88.117 14.8653 87.8183 14.884C87.5197 14.9027 87.221 14.9307 86.9223 14.968V17.726ZM99.9519 10.152H101.366V19H99.9519V15.234H95.2759V19H93.8619V10.152H95.2759V13.89H99.9519V10.152ZM103.501 10.152H109.857V11.468H104.859V13.89H109.241V15.22H104.859V17.684H109.913V19H103.501V10.152ZM111.307 10.152H117.663V11.468H112.665V13.89H117.047V15.22H112.665V17.684H117.719V19H111.307V10.152Z" fill="white"/>
<path d="M121.717 11.9598C121.561 12.116 121.561 12.3693 121.717 12.5255C121.873 12.6817 122.127 12.6817 122.283 12.5255L121.717 11.9598ZM126.643 8.00004C126.643 7.77912 126.464 7.60004 126.243 7.60004H122.643C122.422 7.60004 122.243 7.77912 122.243 8.00004C122.243 8.22095 122.422 8.40004 122.643 8.40004H125.843V11.6C125.843 11.8209 126.022 12 126.243 12C126.464 12 126.643 11.8209 126.643 11.6V8.00004ZM122.283 12.5255L126.525 8.28288L125.96 7.71719L121.717 11.9598L122.283 12.5255Z" fill="white"/>
</svg>
