<svg width="69" height="79" viewBox="0 0 104 118" fill="none" xmlns="http://www.w3.org/2000/svg">
<path d="M54.2333 117.111C36.1593 94.9231 18.074 72.7353 0 50.5476C20.7947 33.6984 41.5781 16.8492 62.3728 0C57.4394 12.3328 52.2464 29.013 49.9208 49.2073C46.6244 77.7698 50.4175 101.534 54.2333 117.122V117.111Z" fill="white"/>
<path d="M55.2152 41.0528C53.9734 46.7631 52.63 54.5344 52.1107 63.8375C51.6817 71.5751 51.9752 77.398 52.2575 82.7816C52.6752 90.598 53.6234 100.982 55.8361 113.225C56.5361 102.514 58.7487 86.9939 65.6464 69.5816C72.4425 52.4395 81.2707 39.7576 88.0216 31.502C77.0824 34.6893 66.1432 37.8767 55.2152 41.0641V41.0528Z" fill="white"/>
<path d="M103.296 62.9818C93.3392 62.8353 83.3821 62.6777 73.4251 62.5312C70.3544 67.9487 67.0467 74.7627 64.2695 82.9057C61.3343 91.5105 59.7651 99.3269 58.9185 105.747C64.2244 99.1129 70.5125 91.9835 77.8843 84.719C86.7237 76.0128 95.3938 68.8384 103.296 62.993V62.9818Z" fill="white"/>
</svg>
